PathFileType	4	(X/Y/Z)	C:\Users\Basilio\Documents\Thesis Gigler\squatting_fais\c3dfiles\047\SJ_pre1\markers_experimental.trc
DataRate	CameraRate	NumFrames	NumMarkers	Units	OrigDataRate	OrigDataStartFrame	OrigNumFrames
200.000000	200.000000	4	61	mm	200.000000	619	1653
Frame#	Time	FHD			LBHD			RBHD			C7			T10			CLAV			LSHO			LUUPA			LMUPA			LDUPA			LLEP			LMEP			LRAD			LUL			LRFIN			RSHO			RUPA1			RMUPA			RDUPA			RLEP			RMEP			RRAD			RUL			RUFIN			LASI			RASI			USACR			LSACR			RSACR			LTHI1			LTHI2			LTHI3			LTHI4			LLFC			LMFC			LTIB1			LTIB2			LTIB3			LTIB4			LLMAL			LMMAL			LMT1			LMT2			LMT5			RTHI			RTHI2			RTHI3			RTHI4			RLFC			RMFC			RTIB1			RTIB2			RTIB3			RTIB4			RLMAL			RMMAL			RHEE			RMT1			RMT2			RMT5			*60			
		X1	Y1	Z1	X2	Y2	Z2	X3	Y3	Z3	X4	Y4	Z4	X5	Y5	Z5	X6	Y6	Z6	X7	Y7	Z7	X8	Y8	Z8	X9	Y9	Z9	X10	Y10	Z10	X11	Y11	Z11	X12	Y12	Z12	X13	Y13	Z13	X14	Y14	Z14	X15	Y15	Z15	X16	Y16	Z16	X17	Y17	Z17	X18	Y18	Z18	X19	Y19	Z19	X20	Y20	Z20	X21	Y21	Z21	X22	Y22	Z22	X23	Y23	Z23	X24	Y24	Z24	X25	Y25	Z25	X26	Y26	Z26	X27	Y27	Z27	X28	Y28	Z28	X29	Y29	Z29	X30	Y30	Z30	X31	Y31	Z31	X32	Y32	Z32	X33	Y33	Z33	X34	Y34	Z34	X35	Y35	Z35	X36	Y36	Z36	X37	Y37	Z37	X38	Y38	Z38	X39	Y39	Z39	X40	Y40	Z40	X41	Y41	Z41	X42	Y42	Z42	X43	Y43	Z43	X44	Y44	Z44	X45	Y45	Z45	X46	Y46	Z46	X47	Y47	Z47	X48	Y48	Z48	X49	Y49	Z49	X50	Y50	Z50	X51	Y51	Z51	X52	Y52	Z52	X53	Y53	Z53	X54	Y54	Z54	X55	Y55	Z55	X56	Y56	Z56	X57	Y57	Z57	X58	Y58	Z58	X59	Y59	Z59	X60	Y60	Z60	X61	Y61	Z61	

620	3.095	154.5757141113282	1139.959350585938	-871.3566894531252	5.572848796844483	1182.355712890625	-966.8339843750002	-27.79510688781739	1197.512817382813	-822.5742797851565	-127.8618621826172	1090.720336914063	-898.8699340820315	-382.9368896484376	898.2332153320315	-896.496032714844	-56.00257492065431	939.0713500976565	-889.8768310546877	-67.7565155029297	1006.246337890625	-1066.687622070313	-214.0941467285157	1027.961059570313	-1187.66796875	-210.5639343261719	983.4863891601565	-1213.569091796875	-262.2982482910157	1006.83056640625	-1235.456420898438	-307.8741455078126	961.740905761719	-1276.068359375	-368.6918945312501	985.4777832031252	-1201.686889648438	-369.6540832519532	783.8020629882815	-1101.46435546875	-366.4486389160157	734.1067504882814	-1160.584594726563	-330.1382751464844	736.1555175781251	-1065.360595703125	-83.97580718994142	1030.330810546875	-734.5420532226564	-247.9151916503907	1048.543334960938	-613.3905029296876	-248.8189392089844	1004.737976074219	-590.1873168945314	-301.1460571289063	1027.2685546875	-571.3877563476564	-348.7892761230469	978.0064697265627	-536.3923950195314	-408.0630493164064	993.835388183594	-606.9522094726564	-358.7134704589844	781.801452636719	-699.2009887695314	-353.9305114746094	740.9642944335939	-634.5711059570314	-321.2613830566407	729.8509521484376	-732.1900024414064	-408.5252380371095	624.1612548828126	-993.8002929687502	-398.8749389648439	630.0167846679689	-775.131042480469	-501.7576904296876	798.6116333007815	-902.1607666015627	-525.2949218750001	779.3291015625002	-932.8135986328127	-528.8214111328126	777.6963500976565	-874.0336914062502	-465.3406066894532	610.7171020507814	-1126.859252929688	-387.1231079101564	599.1948242187501	-1147.70166015625	-358.2764282226563	632.7857666015626	-1127.384155273438	-362.4221496582032	550.4699707031251	-1172.206298828125	-240.2207946777344	441.3160400390626	-1205.181030273438	-179.2644348144532	429.9656372070314	-1092.096313476563	-237.3484191894532	269.5924072265626	-1118.105346679688	-282.9785766601563	234.508041381836	-1185.500244140625	-258.4121093750001	226.6335906982422	-1147.47412109375	-302.2127380371094	163.0740051269532	-1110.21630859375	-398.8143005371095	94.70741271972658	-1143.544189453125	-357.3302001953126	104.5061721801758	-1061.01025390625	-243.7962951660157	64.15829467773439	-1117.160522460938	-255.1670837402344	62.4043426513672	-1160.203369140625	-306.0108642578126	43.71839141845704	-1195.921997070313	-456.964569091797	578.6470336914064	-665.2160644531251	-393.9073181152345	577.5413818359376	-644.7901611328126	-373.3458862304688	601.8171997070314	-651.9456787109376	-348.9665832519532	510.760467529297	-621.5603637695314	-228.1106567382813	434.8830566406251	-605.4730834960939	-172.6039428710938	437.0166931152345	-726.1555175781251	-206.9740447998047	311.2433776855469	-629.6391601562501	-305.2747802734376	261.1055297851563	-613.2267456054689	-262.6372985839844	244.7384185791016	-622.7380981445314	-269.1074829101563	201.4769134521485	-663.5362548828126	-394.2080383300782	90.58308410644533	-663.6680297851564	-347.9571838378907	103.6385803222657	-746.4629516601564	-445.1917724609376	52.24509811401369	-729.4950561523439	-233.8955383300782	53.5679168701172	-697.2692260742189	-243.3912963867188	58.12757492065431	-652.3072509765626	-301.4383239746094	32.37273025512696	-605.5958251953126	nan	nan	nan	
621	3.1	155.0301208496094	1137.909545898438	-871.4006347656252	5.789282321929933	1180.27294921875	-966.764099121094	-27.31765174865723	1195.431274414063	-822.5767211914065	-127.5186157226563	1088.622802734375	-898.7036132812502	-382.5919494628907	896.361511230469	-896.4566040039065	-55.37718963623048	937.1929931640627	-889.695251464844	-67.84752655029298	1004.455261230469	-1066.459838867188	-213.6032714843751	1025.658081054688	-1187.71142578125	-209.9126739501954	981.4447021484377	-1213.666137695313	-261.8856201171876	1004.716064453125	-1235.398193359375	-307.4371032714844	959.8094482421877	-1275.83251953125	-368.2686462402344	983.3692626953127	-1201.68505859375	-369.2214050292969	781.775573730469	-1101.310546875	-366.0610351562501	731.9045410156251	-1160.402465820313	-329.9410095214844	733.9530029296876	-1065.110229492188	-83.44377899169923	1028.365600585938	-734.7015991210939	-247.611312866211	1046.954223632813	-613.0787963867189	-248.3422546386719	1003.081970214844	-589.9628295898439	-300.6391906738282	1025.774291992188	-571.2628173828126	-348.2513122558594	976.3577880859377	-536.3788452148439	-407.6614990234376	992.3023681640627	-606.8909301757814	-357.6040039062501	780.3220825195315	-699.3011474609376	-353.2253417968751	739.2449340820314	-634.5137329101564	-320.7378234863282	728.3733520507814	-732.6259155273439	-411.0286865234376	620.4642333984376	-993.977233886719	-400.4309082031251	626.2638549804689	-775.4651489257815	-501.3403320312501	796.2155761718752	-902.344909667969	-525.0711669921876	777.4097900390627	-932.7139892578127	-528.5479736328126	775.7673339843752	-873.9050903320315	-464.4150695800782	608.8898925781251	-1126.759887695313	-386.8763122558595	597.9782714843751	-1147.613891601563	-357.9989318847657	631.7416992187501	-1127.163818359375	-361.7828063964844	549.3191528320314	-1172.253784179688	-239.3931121826172	440.9697265625001	-1205.382568359375	-178.0048217773438	429.6563720703126	-1092.615112304688	-236.8432006835938	269.3412475585938	-1118.150390625	-282.4203186035157	234.0939331054688	-1185.609497070313	-257.9371337890626	225.7325286865235	-1147.421142578125	-302.0904541015626	162.8929138183594	-1110.10009765625	-398.8034973144532	94.6974334716797	-1143.487670898438	-357.2088928222657	104.5363540649414	-1060.947509765625	-243.7050170898438	64.15820312500001	-1117.1396484375	-255.0292968750001	62.41790771484376	-1160.251708984375	-305.9613037109376	43.67292022705079	-1195.969360351563	-456.3020019531251	577.0346069335939	-665.5184936523439	-393.1256103515626	576.2724609375001	-645.3105468750001	-372.8540344238282	600.7687377929689	-651.9641113281251	-348.0558166503907	509.732635498047	-621.9327392578126	-226.9338684082032	434.4108276367189	-605.6250610351564	-172.1142730712891	436.1683349609376	-726.0497436523439	-206.0906219482422	310.7716369628907	-629.9001464843751	-304.5158081054688	260.8318481445313	-613.1237792968751	-262.2824096679688	244.4839019775391	-622.5113525390626	-268.8055419921876	201.1565093994141	-663.3743896484376	-394.1424560546876	90.42668914794923	-663.2194824218751	-347.9597473144532	103.649772644043	-746.4253540039064	-445.1923217773439	52.29615020751955	-729.4877319335939	-233.8463134765626	53.43190765380861	-697.2266845703126	-243.5641021728516	58.20571136474611	-652.2621459960939	-301.4259643554688	32.38425827026368	-605.6267089843751	nan	nan	nan	
622	3.105	155.3602294921875	1135.66650390625	-871.5694580078127	6.00190305709839	1178.3603515625	-966.694763183594	-26.66086196899415	1193.399291992188	-822.5310058593752	-127.1941757202149	1086.781982421875	-898.4768676757815	-382.2413940429688	894.585388183594	-896.1799316406252	-54.9707717895508	935.1717529296877	-889.5464477539065	-66.95002746582033	1002.647094726563	-1066.564331054688	-213.2288818359376	1023.7109375	-1187.662963867188	-209.524642944336	979.4481201171877	-1213.483764648438	-261.3185729980469	1002.490539550781	-1235.353149414063	-306.5085144042969	957.5549316406252	-1275.697265625	-367.9110717773438	981.4342041015627	-1201.445434570313	-368.7424316406251	779.7883300781252	-1101.21484375	-365.5648803710938	729.9052734375001	-1160.261596679688	-329.7411193847657	731.4077758789064	-1065.02490234375	-82.93523406982423	1026.626831054688	-734.6445312500001	-247.2433166503907	1045.172241210938	-612.9200439453126	-247.9498443603516	1001.281066894531	-589.8024902343751	-300.3273925781251	1023.950378417969	-571.0155639648439	-347.7822265625001	974.735778808594	-536.1863403320314	-407.3124084472657	990.6986083984377	-606.6676025390626	-357.6368103027344	778.7360839843752	-699.0508422851564	-352.2108459472657	737.5654296875001	-634.4217529296876	-320.0982971191407	726.8334960937501	-732.3694458007814	-405.793182373047	620.8658447265626	-990.9741821289065	-397.883514404297	628.8927612304689	-772.5302734375002	-501.3414611816407	795.1900024414065	-902.0711059570315	-524.4062500000001	775.3513793945315	-932.8387451171877	-528.5209350585939	774.2026367187502	-873.766540527344	-464.1040039062501	607.5750732421876	-1126.741088867188	-386.4620056152345	596.9487915039064	-1147.464599609375	-357.6794433593751	630.4103393554689	-1126.984619140625	-361.3845825195313	548.5334472656251	-1172.232177734375	-238.5998840332032	440.5424194335939	-1205.640380859375	-177.1951751708985	429.1182250976564	-1092.63427734375	-236.4619903564454	269.1242065429688	-1118.253051757813	-282.0299072265626	233.7911682128907	-1185.566040039063	-257.8986511230469	225.1440124511719	-1147.271362304688	-301.8280639648438	162.6904602050782	-1110.077270507813	-398.6361694335939	94.60347747802736	-1143.435791015625	-357.0576477050782	104.573974609375	-1060.96044921875	-243.6872253417969	64.05286407470705	-1117.146850585938	-254.9210052490235	62.45050430297853	-1160.307739257813	-305.9161987304688	43.70774078369141	-1195.958862304688	-455.7513732910157	575.7749633789064	-665.2109375000001	-392.7745361328126	575.1759033203126	-645.1893920898439	-372.2967224121094	599.5672607421876	-652.2527465820314	-347.1929931640626	508.8703002929689	-622.2067260742189	-225.9354095458985	433.9490661621095	-605.6460571289064	-171.5377349853516	435.7915039062501	-726.0914306640626	-205.3426666259766	310.3054504394532	-629.8856201171876	-303.8039550781251	260.6163330078126	-613.6516723632814	-261.6644592285157	243.9939880371094	-622.7423706054689	-268.4618835449219	200.8256988525391	-663.3818359375001	-393.861541748047	90.77280426025392	-663.5349121093751	-347.7200317382813	103.6168899536133	-746.5416870117189	-445.1756896972657	52.36981201171876	-729.5353393554689	-233.7684173583985	53.35828018188478	-697.2727661132814	-243.3704376220704	58.03212356567384	-652.2599487304689	-301.4388427734376	32.35668182373048	-605.6953125000001	nan	nan	nan	
623	3.11	155.5051727294922	1133.694213867188	-871.6118164062502	6.271744251251222	1176.542602539063	-966.4667968750002	-26.22492408752442	1191.23193359375	-821.9255981445315	-126.768913269043	1084.813720703125	-898.3782958984377	-382.0246582031251	892.6565551757815	-896.243835449219	-54.41677474975587	933.612731933594	-889.268493652344	-66.74441528320314	1000.770874023438	-1066.20849609375	-212.4713592529297	1021.740661621094	-1187.618530273438	-209.3294219970704	977.3398437500002	-1213.24853515625	-260.8202514648438	1000.551696777344	-1235.293579101563	-306.1213073730469	955.453552246094	-1275.763793945313	-367.5395507812501	979.4195556640627	-1201.493530273438	-368.3729858398438	777.746032714844	-1101.108032226563	-365.2845764160157	727.8505249023439	-1160.144287109375	-329.6062011718751	729.8030395507814	-1064.75146484375	-82.56188201904298	1024.997802734375	-734.3646240234376	-246.643783569336	1043.433959960938	-612.7528686523439	-247.2609252929688	999.6221313476565	-589.7143554687501	-299.7698059082032	1022.418395996094	-570.8186645507814	-347.3362731933594	973.051452636719	-536.0356445312501	-406.6579589843751	988.9249267578127	-606.6100463867189	-356.6091308593751	777.194274902344	-698.9671020507814	-351.5227966308594	736.1055908203126	-634.3064575195314	-319.8076171875001	725.1867675781251	-732.3058471679689	-410.5051574707032	616.8409423828126	-993.1082153320315	-400.4657287597657	622.8514404296876	-774.802673339844	-500.8828125000001	792.6674804687502	-902.2501220703127	-524.5203857421876	773.795593261719	-932.5887451171877	-528.2949829101564	772.1685791015627	-873.811218261719	-464.1723937988282	606.4396362304689	-1126.715698242188	-386.0045166015626	595.8306884765626	-1147.414672851563	-357.2412414550782	629.4583129882814	-1126.85693359375	-360.7880859375001	547.5416259765626	-1172.320434570313	-237.7578887939454	440.0836486816407	-1206.027099609375	-176.3325653076172	428.2806396484376	-1093.143798828125	-236.1134185791016	268.7529602050782	-1118.199462890625	-281.5199584960938	233.5359954833985	-1185.688110351563	-257.4967956542969	225.132797241211	-1147.477416992188	-301.4340209960938	162.4807434082032	-1110.103515625	-398.5211486816407	94.6359329223633	-1143.446166992188	-356.9591979980469	104.5372009277344	-1060.943969726563	-243.6869812011719	64.04183959960939	-1117.1455078125	-254.9048767089844	62.41382217407228	-1160.280029296875	-305.9108581542969	43.71000289916993	-1195.923583984375	-455.3460998535157	574.4152832031251	-665.3393554687501	-392.1065979003907	573.9293823242189	-645.2098388671876	-371.8327026367188	598.4514160156251	-652.3909912109376	-346.5718383789063	507.9544372558595	-621.9616699218751	-225.0384063720704	433.4961547851564	-605.4312744140626	-170.1883697509766	435.5505981445314	-726.2543945312501	-204.6347351074219	309.9988403320313	-629.8133544921876	-303.3977355957032	260.4864501953126	-613.5765991210939	-261.1281433105469	243.7371978759766	-622.6472167968751	-267.9380187988282	200.6084289550782	-663.7133789062501	-393.8282470703126	90.70001220703126	-663.7127685546876	-347.5532226562501	103.6507110595703	-746.7131958007814	-445.108367919922	52.39903259277345	-729.5929565429689	-233.7378387451172	53.31782531738283	-697.2275390625001	-243.3486480712891	58.03675079345705	-652.2585449218751	-301.4389343261719	32.37643432617188	-605.6715087890626	nan	nan	nan	
